<?xml version="1.0" encoding="utf-8"?>
<!--
	© Copyright 2018 Videoplasty.com
	License: Creative Commons Attribution-ShareAlike 4.0 (https://creativecommons.org/licenses/by-sa/4.0/deed.en)
	Author: Videoplasty.com (https://videoplasty.com/)
	Source: https://commons.wikimedia.org/wiki/File:Notebook_Flat_Icon_Vector.svg

	© Copyright 2020 Craig Buchek
	Modifications:
		* Added comment with copyright and license info
		* Changed some colors
		* Made the SVG source code more readable
-->
<svg version="1.1" id="Layer_1" xmlns="http://www.w3.org/2000/svg" xmlns:xlink="http://www.w3.org/1999/xlink" x="0px" y="0px"
	 viewBox="0 0 960 960" style="enable-background:new 0 0 960 960;" xml:space="preserve">
  <style type="text/css">
	.cover { fill: #5D5D5D; }
	.paper { fill: #FFFFFF; }
	.inset { fill: #FFB03B; }
	.band { fill: #333333; }
	.bookmark { fill: #CC0000; }
  </style>
  <g>
	<path class="cover" d="M673.4,766.9H279.3V142.4h394.2c18.8,0,34,15.2,34,34v556.5C707.5,751.7,692.2,766.9,673.4,766.9z"/>
	<path class="paper" d="M661.5,755.6h-379V153.7h379c17.6,0,31.9,14.3,31.9,31.9v538C693.5,741.3,679.2,755.6,661.5,755.6z"/>
	<path class="cover" d="M646.7,766.9H269.6c-9.4,0-17-7.6-17-17V159.4c0-9.4,7.6-17,17-17h377.1c18.8,0,34,15.2,34,34v556.5
		C680.7,751.7,665.5,766.9,646.7,766.9z"/>
	<rect class="inset" x="252.5" y="380.4" width="428.2" height="217.4"/>
	<rect class="band" x="575.7" y="142.4" width="39.1" height="624.6"/>
	<polygon class="bookmark" points="289.2,766.9 289.2,817.6 314.8,802.4 340.5,817.6 340.5,766.9"/>
  </g>
</svg>
